TITLE ""
FILE "P1Q_t_1488-1497.mp3" MP3
  TRACK 01 AUDIO
    TITLE "P1Q_t_1488-1497_01"
    INDEX 01 00:00:00
  TRACK 02 AUDIO
    TITLE "P1Q_t_1488-1497_02"
    INDEX 01 00:00:08
  TRACK 03 AUDIO
    TITLE "P1Q_t_1488-1497_03"
    INDEX 01 00:01:23
  TRACK 04 AUDIO
    TITLE "P1Q_t_1488-1497_04"
    INDEX 01 00:01:45
  TRACK 05 AUDIO
    TITLE "P1Q_t_1488-1497_05"
    INDEX 01 00:03:09
  TRACK 06 AUDIO
    TITLE "P1Q_t_1488-1497_06"
    INDEX 01 00:03:28
  TRACK 07 AUDIO
    TITLE "P1Q_t_1488-1497_07"
    INDEX 01 00:07:03
  TRACK 08 AUDIO
    TITLE "P1Q_t_1488-1497_08"
    INDEX 01 00:07:48
  TRACK 09 AUDIO
    TITLE "P1Q_t_1488-1497_09"
    INDEX 01 00:08:53
  TRACK 10 AUDIO
    TITLE "P1Q_t_1488-1497_10"
    INDEX 01 00:08:74
  TRACK 11 AUDIO
    TITLE "P1Q_t_1488-1497_11"
    INDEX 01 00:11:71
  TRACK 12 AUDIO
    TITLE "P1Q_t_1488-1497_12"
    INDEX 01 00:12:15
  TRACK 13 AUDIO
    TITLE "P1Q_t_1488-1497_13"
    INDEX 01 00:17:38
  TRACK 14 AUDIO
    TITLE "P1Q_t_1488-1497_14"
    INDEX 01 00:18:10
  TRACK 15 AUDIO
    TITLE "P1Q_t_1488-1497_15"
    INDEX 01 00:19:12
  TRACK 16 AUDIO
    TITLE "P1Q_t_1488-1497_16"
    INDEX 01 00:19:31
  TRACK 17 AUDIO
    TITLE "P1Q_t_1488-1497_17"
    INDEX 01 00:23:11
  TRACK 18 AUDIO
    TITLE "P1Q_t_1488-1497_18"
    INDEX 01 00:23:31
  TRACK 19 AUDIO
    TITLE "P1Q_t_1488-1497_19"
    INDEX 01 00:26:66
  TRACK 20 AUDIO
    TITLE "P1Q_t_1488-1497_20"
    INDEX 01 00:27:39
  TRACK 21 AUDIO
    TITLE "P1Q_t_1488-1497_21"
    INDEX 01 00:29:06
  TRACK 22 AUDIO
    TITLE "P1Q_t_1488-1497_22"
    INDEX 01 00:29:26
  TRACK 23 AUDIO
    TITLE "P1Q_t_1488-1497_23"
    INDEX 01 00:30:58
  TRACK 24 AUDIO
    TITLE "P1Q_t_1488-1497_24"
    INDEX 01 00:31:03
  TRACK 25 AUDIO
    TITLE "P1Q_t_1488-1497_25"
    INDEX 01 00:35:13
  TRACK 26 AUDIO
    TITLE "P1Q_t_1488-1497_26"
    INDEX 01 00:35:58
  TRACK 27 AUDIO
    TITLE "P1Q_t_1488-1497_27"
    INDEX 01 00:37:15
  TRACK 28 AUDIO
    TITLE "P1Q_t_1488-1497_28"
    INDEX 01 00:37:37
  TRACK 29 AUDIO
    TITLE "P1Q_t_1488-1497_29"
    INDEX 01 00:40:14
  TRACK 30 AUDIO
    TITLE "P1Q_t_1488-1497_30"
    INDEX 01 00:40:33
  TRACK 31 AUDIO
    TITLE "P1Q_t_1488-1497_31"
    INDEX 01 00:44:13
  TRACK 32 AUDIO
    TITLE "P1Q_t_1488-1497_32"
    INDEX 01 00:44:60
  TRACK 33 AUDIO
    TITLE "P1Q_t_1488-1497_33"
    INDEX 01 00:46:01
  TRACK 34 AUDIO
    TITLE "P1Q_t_1488-1497_34"
    INDEX 01 00:46:22
  TRACK 35 AUDIO
    TITLE "P1Q_t_1488-1497_35"
    INDEX 01 00:50:63
  TRACK 36 AUDIO
    TITLE "P1Q_t_1488-1497_36"
    INDEX 01 00:51:08
  TRACK 37 AUDIO
    TITLE "P1Q_t_1488-1497_37"
    INDEX 01 00:55:27
  TRACK 38 AUDIO
    TITLE "P1Q_t_1488-1497_38"
    INDEX 01 00:55:72
  TRACK 39 AUDIO
    TITLE "P1Q_t_1488-1497_39"
    INDEX 01 00:57:32
  TRACK 40 AUDIO
    TITLE "P1Q_t_1488-1497_40"
    INDEX 01 00:57:51
  TRACK 41 AUDIO
    TITLE "P1Q_t_1488-1497_41"
    INDEX 01 01:01:06
  TRACK 42 AUDIO
    TITLE "P1Q_t_1488-1497_42"
    INDEX 01 01:01:26
  TRACK 43 AUDIO
    TITLE "P1Q_t_1488-1497_43"
    INDEX 01 01:05:51
  TRACK 44 AUDIO
    TITLE "P1Q_t_1488-1497_44"
    INDEX 01 01:06:21
  TRACK 45 AUDIO
    TITLE "P1Q_t_1488-1497_45"
    INDEX 01 01:07:36
  TRACK 46 AUDIO
    TITLE "P1Q_t_1488-1497_46"
    INDEX 01 01:07:60
  TRACK 47 AUDIO
    TITLE "P1Q_t_1488-1497_47"
    INDEX 01 01:11:10
  TRACK 48 AUDIO
    TITLE "P1Q_t_1488-1497_48"
    INDEX 01 01:11:30
  TRACK 49 AUDIO
    TITLE "P1Q_t_1488-1497_49"
    INDEX 01 01:15:45
  TRACK 50 AUDIO
    TITLE "P1Q_t_1488-1497_50"
    INDEX 01 01:16:15
  TRACK 51 AUDIO
    TITLE "P1Q_t_1488-1497_51"
    INDEX 01 01:17:42
  TRACK 52 AUDIO
    TITLE "P1Q_t_1488-1497_52"
    INDEX 01 01:17:62
  TRACK 53 AUDIO
    TITLE "P1Q_t_1488-1497_53"
    INDEX 01 01:20:50
  TRACK 54 AUDIO
    TITLE "P1Q_t_1488-1497_54"
    INDEX 01 01:20:70
  TRACK 55 AUDIO
    TITLE "P1Q_t_1488-1497_55"
    INDEX 01 01:25:44
  TRACK 56 AUDIO
    TITLE "P1Q_t_1488-1497_56"
    INDEX 01 01:26:16
  TRACK 57 AUDIO
    TITLE "P1Q_t_1488-1497_57"
    INDEX 01 01:27:49
  TRACK 58 AUDIO
    TITLE "P1Q_t_1488-1497_58"
    INDEX 01 01:27:68
  TRACK 59 AUDIO
    TITLE "P1Q_t_1488-1497_59"
    INDEX 01 01:30:25
  TRACK 60 AUDIO
    TITLE "P1Q_t_1488-1497_60"
    INDEX 01 01:30:45
  TRACK 61 AUDIO
    TITLE "P1Q_t_1488-1497_61"
    INDEX 01 01:34:13
